<svg viewBox="0 0 2500 6075" xmlns="http://www.w3.org/2000/svg"><g fill="#F7F8FC" fill-rule="evenodd"><path d="M-99.833 5948.034l93.837 54.188c5.74 3.314 13.078 1.348 16.392-4.392l.001-.001 54.24-93.968c3.313-5.74 1.347-13.078-4.392-16.392l-93.836-54.188c-5.739-3.314-13.078-1.349-16.392 4.39l-.001.002-54.24 93.969c-3.313 5.739-1.347 13.077 4.392 16.39zm177.667 10.031l199.48 115.19c5.74 3.315 13.08 1.349 16.393-4.39l.001-.002 115.229-199.62c3.313-5.74 1.346-13.078-4.392-16.392l-199.48-115.191c-5.74-3.315-13.078-1.349-16.393 4.39v.002l-115.229 199.62c-3.313 5.74-1.347 13.078 4.392 16.392zM-138.1 5739.546l199.313 115.095c5.74 3.314 13.079 1.348 16.393-4.392v-.001l115.127-199.445c3.313-5.74 1.347-13.077-4.392-16.391L-10.97 5519.316c-5.739-3.314-13.078-1.348-16.392 4.391l-.001.002-115.127 199.445c-3.313 5.739-1.347 13.077 4.392 16.391zm365.71-41.145l277.926 160.488c5.74 3.314 13.078 1.348 16.392-4.391l.001-.002 160.522-278.083c3.313-5.74 1.347-13.078-4.392-16.391l-277.924-160.49c-5.739-3.313-13.078-1.347-16.392 4.392l-.001.001L223.22 5682.01c-3.313 5.739-1.347 13.077 4.392 16.39zm-258.587-237.249l244.154 140.987c5.74 3.314 13.078 1.348 16.393-4.391v-.002l141.026-244.31c3.313-5.738 1.347-13.077-4.392-16.39l-244.153-140.988c-5.739-3.314-13.078-1.348-16.392 4.391v.001l-141.027 244.31c-3.313 5.74-1.347 13.077 4.392 16.391z" fill-opacity=".7"/><path d="M20.224 5095.386l367.116 211.99c5.74 3.315 13.079 1.349 16.393-4.39v-.002l212.513-368.148c3.313-5.739 1.347-13.077-4.392-16.39L244.74 4706.453c-5.739-3.314-13.078-1.348-16.392 4.391l-.001.001-212.513 368.148c-3.313 5.739-1.346 13.077 4.392 16.391z" opacity=".8"/><path d="M1798.158 5438.654l672.79 388.499c5.739 3.314 13.078 1.348 16.392-4.391l.001-.002 388.98-673.845c3.312-5.74 1.346-13.078-4.392-16.392l-672.79-388.5c-5.739-3.314-13.078-1.348-16.392 4.391v.002l-388.98 673.845c-3.313 5.74-1.347 13.078 4.392 16.391z" fill-opacity=".6"/><path d="M-507.018 4973.765l387.898 223.991c5.74 3.314 13.079 1.348 16.393-4.391v-.001l224.511-388.932c3.313-5.74 1.347-13.077-4.392-16.391l-387.897-223.992c-5.74-3.314-13.079-1.348-16.393 4.391v.001l-224.511 388.932c-3.313 5.739-1.347 13.077 4.392 16.391zm933.603 395.586l146.304 84.484c5.739 3.314 13.078 1.348 16.392-4.392l.001-.001 84.537-146.451c3.313-5.74 1.346-13.078-4.392-16.392l-146.303-84.485c-5.74-3.314-13.078-1.348-16.393 4.392v.001l-84.537 146.451c-3.313 5.74-1.347 13.078 4.392 16.392z"/><g opacity=".8"><path d="M593.26 2802.54l-93.837-54.188c-5.74-3.314-13.079-1.348-16.393 4.39v.002l-54.241 93.969c-3.313 5.739-1.347 13.077 4.392 16.39l93.836 54.19c5.74 3.314 13.079 1.348 16.393-4.391v-.002l54.24-93.968c3.314-5.74 1.347-13.078-4.391-16.391zm-177.668-10.032l-199.48-115.19c-5.74-3.314-13.079-1.348-16.393 4.39v.002l-115.23 199.62c-3.312 5.74-1.346 13.078 4.393 16.392l199.48 115.192c5.739 3.314 13.078 1.348 16.392-4.391v-.002l115.23-199.62c3.312-5.74 1.346-13.078-4.393-16.391zm215.934 218.519l-199.313-115.094c-5.739-3.314-13.078-1.348-16.392 4.39l-.001.002-115.127 199.445c-3.313 5.74-1.347 13.078 4.392 16.391l199.312 115.096c5.74 3.314 13.079 1.348 16.393-4.391v-.002l115.127-199.444c3.313-5.74 1.347-13.078-4.392-16.392zm-365.71 41.145L-12.11 2891.685c-5.74-3.315-13.079-1.349-16.393 4.39v.002l-160.523 278.084c-3.313 5.739-1.347 13.077 4.392 16.39l277.924 160.49c5.74 3.314 13.079 1.348 16.393-4.392v-.001l160.523-278.083c3.313-5.74 1.346-13.078-4.392-16.392zm258.282 240.412l-244.154-140.986c-5.74-3.314-13.078-1.348-16.393 4.391v.001L122.525 3400.3c-3.313 5.739-1.347 13.077 4.392 16.391l244.153 140.988c5.739 3.314 13.078 1.348 16.392-4.391v-.002l141.027-244.31c3.313-5.738 1.347-13.077-4.392-16.39z" fill-opacity=".7"/><path d="M352.703 3712.65l-199.125-114.984c-5.74-3.315-13.079-1.349-16.393 4.39v.002L21.653 3802.202c-3.313 5.739-1.347 13.077 4.392 16.39L225.17 3933.58c5.74 3.314 13.078 1.348 16.392-4.39l.001-.002 115.531-200.144c3.313-5.739 1.347-13.077-4.392-16.39zm-171.646 255.496L-18.068 3853.16c-5.74-3.314-13.078-1.348-16.393 4.39v.002l-115.531 200.144c-3.313 5.739-1.347 13.077 4.392 16.39l199.124 114.987c5.74 3.315 13.079 1.349 16.393-4.39v-.002l115.531-200.144c3.313-5.739 1.347-13.077-4.392-16.39zM66.32 3384.395l-146.304-84.483c-5.74-3.314-13.078-1.348-16.392 4.39l-.001.002-84.537 146.452c-3.313 5.739-1.346 13.077 4.392 16.39l146.303 84.486c5.739 3.314 13.078 1.348 16.392-4.391l.001-.002 84.537-146.451c3.313-5.74 1.346-13.078-4.392-16.391z"/><path d="M2126.167 4369.034l93.837 54.188c5.74 3.314 13.078 1.348 16.392-4.392l.001-.001 54.24-93.968c3.313-5.74 1.347-13.078-4.392-16.392l-93.836-54.188c-5.739-3.314-13.078-1.348-16.392 4.39l-.001.002-54.24 93.969c-3.313 5.739-1.347 13.077 4.392 16.39zm177.667 10.031l199.48 115.19c5.74 3.315 13.08 1.349 16.393-4.39l.001-.002 115.229-199.62c3.313-5.74 1.346-13.078-4.392-16.392l-199.48-115.191c-5.74-3.315-13.078-1.349-16.393 4.39v.002l-115.229 199.62c-3.313 5.74-1.347 13.078 4.392 16.392zM2087.9 4160.546l199.313 115.095c5.74 3.314 13.079 1.348 16.393-4.392v-.001l115.127-199.445c3.313-5.74 1.347-13.077-4.392-16.391l-199.312-115.096c-5.739-3.314-13.078-1.348-16.392 4.391l-.001.002-115.127 199.445c-3.313 5.739-1.347 13.077 4.392 16.391zm365.71-41.145l277.926 160.488c5.74 3.314 13.078 1.348 16.392-4.391l.001-.002 160.522-278.083c3.313-5.74 1.347-13.078-4.392-16.391l-277.924-160.49c-5.739-3.313-13.078-1.347-16.392 4.392l-.001.001-160.522 278.084c-3.313 5.739-1.347 13.077 4.392 16.39zm-258.281-240.411l244.153 140.986c5.74 3.314 13.079 1.348 16.393-4.392v-.001l141.027-244.31c3.313-5.739 1.346-13.077-4.392-16.39l-244.153-140.988c-5.74-3.315-13.079-1.349-16.393 4.39v.002l-141.026 244.31c-3.313 5.739-1.347 13.077 4.392 16.39zm-251.879-253.588l244.154 140.986c5.739 3.314 13.078 1.348 16.392-4.39l.001-.002 141.026-244.31c3.313-5.739 1.347-13.077-4.392-16.39l-244.153-140.989c-5.74-3.314-13.078-1.348-16.392 4.391l-.001.002-141.026 244.31c-3.313 5.738-1.347 13.077 4.392 16.39z" fill-opacity=".7"/><path d="M2230.127 3499.177l387.898 223.991c5.74 3.314 13.079 1.348 16.393-4.391v-.002l224.51-388.931c3.314-5.74 1.348-13.077-4.391-16.391L2466.64 3089.46c-5.74-3.314-13.079-1.348-16.393 4.391v.001l-224.511 388.932c-3.313 5.739-1.347 13.077 4.392 16.391z"/><path d="M2466.168 2057.087l-199.48-115.19c-5.74-3.314-13.079-1.348-16.393 4.39v.002l-115.23 199.62c-3.312 5.74-1.346 13.078 4.393 16.392l199.48 115.192c5.738 3.314 13.078 1.348 16.392-4.391v-.002l115.23-199.62c3.312-5.74 1.346-13.078-4.393-16.391zm129.612 251.845l-146.49-84.593c-5.74-3.314-13.08-1.348-16.393 4.391l-.001.002-84.633 146.619c-3.313 5.739-1.347 13.077 4.392 16.391l146.49 84.594c5.74 3.314 13.079 1.348 16.393-4.391v-.002l84.634-146.619c3.313-5.739 1.346-13.077-4.392-16.39zm-279.389 7.818l-277.925-160.486c-5.739-3.315-13.078-1.349-16.392 4.39l-.001.002-160.522 278.084c-3.313 5.739-1.347 13.077 4.392 16.39l277.924 160.49c5.74 3.314 13.078 1.348 16.392-4.392l.001-.001 160.523-278.083c3.313-5.74 1.346-13.078-4.392-16.392zm292.054 270.914l-277.925-160.487c-5.74-3.314-13.079-1.348-16.393 4.39v.002l-160.523 278.084c-3.313 5.739-1.346 13.077 4.392 16.39l277.924 160.49c5.74 3.314 13.079 1.348 16.393-4.391v-.002l160.523-278.083c3.313-5.74 1.347-13.078-4.392-16.391zm-90.528 405.891l-387.899-223.991c-5.739-3.314-13.078-1.348-16.392 4.391l-.001.001-224.51 388.932c-3.313 5.74-1.347 13.077 4.392 16.391l387.897 223.992c5.74 3.314 13.079 1.348 16.393-4.391v-.001l224.51-388.932c3.314-5.739 1.347-13.077-4.391-16.391zm-401.022-344.581l-146.303-84.483c-5.74-3.314-13.078-1.349-16.393 4.39v.002l-84.537 146.452c-3.313 5.739-1.347 13.077 4.392 16.39l146.303 84.486c5.739 3.314 13.078 1.348 16.392-4.391l.001-.002 84.537-146.451c3.313-5.74 1.346-13.078-4.392-16.391z" fill-opacity=".7"/></g><g opacity=".8"><path d="M524.042 192.057l-199.48-115.19c-5.74-3.315-13.08-1.349-16.393 4.39l-.001.002-115.229 199.62c-3.313 5.74-1.346 13.078 4.392 16.391l199.48 115.192c5.74 3.314 13.078 1.348 16.392-4.39l.001-.002 115.229-199.62c3.313-5.74 1.347-13.078-4.392-16.392zm129.612 251.844L507.163 359.31c-5.74-3.314-13.079-1.348-16.393 4.391v.001l-84.633 146.62c-3.313 5.739-1.347 13.077 4.392 16.39l146.49 84.595c5.74 3.314 13.079 1.348 16.393-4.392v-.001l84.633-146.619c3.313-5.74 1.347-13.077-4.392-16.391zm-279.389 7.819L96.34 291.233c-5.74-3.314-13.078-1.348-16.393 4.391v.002L-80.576 573.709c-3.313 5.74-1.346 13.078 4.392 16.391L201.74 750.59c5.74 3.313 13.079 1.347 16.393-4.392v-.001l160.523-278.084c3.313-5.74 1.347-13.077-4.392-16.391z"/><path d="M657.318 722.634L379.394 562.146c-5.74-3.314-13.079-1.348-16.393 4.391v.002L202.477 844.622c-3.313 5.74-1.347 13.078 4.392 16.391l277.924 160.49c5.74 3.313 13.078 1.347 16.393-4.392v-.001L661.71 739.026c3.313-5.739 1.346-13.077-4.392-16.39zm-81.528 405.89l-387.898-223.99c-5.74-3.315-13.078-1.349-16.393 4.39v.002l-224.51 388.931c-3.314 5.74-1.347 13.078 4.391 16.392l387.898 223.992c5.739 3.314 13.078 1.348 16.392-4.391l.001-.002 224.51-388.931c3.313-5.74 1.347-13.078-4.392-16.391zM421.192 1647.59l-146.303-84.483c-5.74-3.314-13.079-1.348-16.393 4.39v.002l-84.537 146.452c-3.313 5.739-1.347 13.077 4.392 16.391l146.302 84.485c5.74 3.314 13.079 1.348 16.393-4.391v-.002l84.537-146.451c3.313-5.74 1.347-13.077-4.392-16.391zM56.376 987.103l-82.225-47.482c-5.739-3.314-13.078-1.348-16.392 4.392l-.001.001-47.543 82.367c-3.313 5.74-1.347 13.078 4.392 16.392l82.223 47.483c5.74 3.314 13.079 1.348 16.393-4.391v-.002l47.544-82.367c3.313-5.74 1.347-13.078-4.392-16.391z" fill-opacity=".7"/><path d="M213.06 1509.452l-387.897-223.99c-5.74-3.315-13.079-1.349-16.393 4.39v.002l-224.51 388.932c-3.314 5.739-1.348 13.077 4.391 16.39l387.897 223.993c5.74 3.314 13.079 1.348 16.393-4.391v-.002l224.511-388.931c3.313-5.74 1.347-13.078-4.392-16.391z"/><path d="M174.769 783.944L28.466 699.46c-5.74-3.314-13.079-1.348-16.393 4.391v.002l-84.537 146.451c-3.313 5.74-1.347 13.078 4.392 16.391L78.23 951.18c5.74 3.314 13.079 1.348 16.393-4.39v-.002l84.537-146.452c3.313-5.739 1.347-13.077-4.392-16.39zm2466.399-666.197l-199.48-115.19c-5.74-3.315-13.079-1.349-16.393 4.39v.002l-115.23 199.62c-3.312 5.74-1.346 13.078 4.393 16.391l199.48 115.192c5.738 3.314 13.078 1.348 16.392-4.39v-.002l115.23-199.62c3.312-5.74 1.346-13.078-4.393-16.392zM2491.391 377.41l-277.925-160.487c-5.739-3.314-13.078-1.348-16.392 4.391l-.001.002-160.522 278.083c-3.313 5.74-1.347 13.078 4.392 16.391l277.924 160.49c5.74 3.313 13.078 1.347 16.392-4.392l.001-.001 160.523-278.084c3.313-5.74 1.346-13.077-4.392-16.391zm292.054 270.914L2505.52 487.836c-5.74-3.314-13.079-1.348-16.393 4.391v.002l-160.523 278.083c-3.313 5.74-1.346 13.078 4.392 16.392l277.924 160.488c5.74 3.314 13.079 1.348 16.393-4.39v-.002l160.523-278.084c3.313-5.739 1.347-13.077-4.392-16.39zm-90.528 405.89l-387.899-223.99c-5.739-3.315-13.078-1.349-16.392 4.39l-.001.002-224.51 388.931c-3.313 5.74-1.347 13.078 4.392 16.392l387.897 223.992c5.74 3.314 13.079 1.348 16.393-4.391v-.002l224.51-388.931c3.314-5.74 1.347-13.078-4.391-16.391zm-401.022-344.58l-146.303-84.484c-5.74-3.314-13.078-1.348-16.393 4.391v.002l-84.537 146.451c-3.313 5.74-1.347 13.078 4.392 16.391l146.303 84.485c5.739 3.314 13.078 1.348 16.392-4.39l.001-.002 84.537-146.452c3.313-5.739 1.346-13.077-4.392-16.39z" fill-opacity=".7"/></g></g></svg>