<svg width="286" height="217" fill="none" xmlns="http://www.w3.org/2000/svg"><g clip-path="url(#a)" opacity=".2"><path d="m208.5 212.627-143.4-82.8c-1.7-1-1.4-2.6.5-3.8l68.7-39.7c1.9-1.1 4.8-1.2 6.5-.3l143.4 82.8c1.7 1 1.4 2.6-.5 3.8l-68.7 39.8c-1.9 1.1-4.8 1.2-6.5.2z" fill="#A6D1FF"/><path d="m38.5 118.527 161.3 93.2c3.2 1.9 8.8 1.6 12.5-.5l37-21.4c3.7-2.1 4.1-5.4.9-7.2L89 89.427c-3.2-1.9-8.8-1.6-12.5.5l-37 21.4c-3.8 2.1-4.2 5.4-1 7.2z" fill="#A6D1FF" stroke="#2F80ED" stroke-width="2" stroke-miterlimit="10" stroke-linecap="round" stroke-linejoin="round"/><path d="m38.5 108.727 161.4 93.2c3.2 1.9 8.8 1.6 12.5-.5l37-21.4c3.7-2.1 4.1-5.4.9-7.2L89 79.527c-3.2-1.9-8.8-1.6-12.5.5l-37 21.4c-3.8 2.2-4.2 5.4-1 7.3zM82 54.027l-31.3-18.2 31.2-18 31.4 18.1-31.3 18.1z" fill="#fff" stroke="#2F80ED" stroke-width="2" stroke-miterlimit="10" stroke-linecap="round" stroke-linejoin="round"/><path d="m82 120.527-31.3-18.1v-66.6l31.3 18.1v66.6z" fill="#fff" stroke="#2F80ED" stroke-width="2" stroke-miterlimit="10" stroke-linecap="round" stroke-linejoin="round"/><path d="m81.9 120.527 32-18.1v-66.6l-32 18.1v66.6z" fill="#A6D1FF" stroke="#2F80ED" stroke-width="2" stroke-miterlimit="10" stroke-linecap="round" stroke-linejoin="round"/><path d="m123.9 37.827-31.8-18 31.6-18.1 31.3 18.1-31.1 18z" fill="#fff" stroke="#2F80ED" stroke-width="2" stroke-miterlimit="10" stroke-linecap="round" stroke-linejoin="round"/><path d="M92.4 19.727v106.3l31.4 18.1v-106.3l-31.4-18.1z" fill="#fff" stroke="#2F80ED" stroke-width="2" stroke-miterlimit="10" stroke-linecap="round" stroke-linejoin="round"/><path d="m123.9 37.827-.1 106.3 31.5-18.1v-106.3l-31.4 18.1z" fill="#A6D1FF" stroke="#2F80ED" stroke-width="2" stroke-miterlimit="10" stroke-linecap="round" stroke-linejoin="round"/><path d="M10.9 86.027s-12.5 12-9.4 19.2l10 22.5 18.9-.8-19.5-40.9z" fill="#fff" stroke="#2F80ED" stroke-width="2" stroke-miterlimit="10" stroke-linecap="round" stroke-linejoin="round"/><path d="M9.2 102.527c.2 1 1.1 1.6 2 1.5 1-.2 1.6-1.1 1.5-2-.2-1-1.1-1.6-2-1.5-1 .1-1.7 1-1.5 2z" fill="#A6D1FF"/><path d="m37.4 215.327 7.2-5.5c1.8-1.1 2.3-2.9.8-4.4-.9-.6-2.1-.7-3.4.1l-8.2 4.2c-1.9 1.2-2.1 3.8-.5 5.3 1.2 1 2.9 1.1 4.1.3z" stroke="#2F80ED" stroke-width="2" stroke-miterlimit="10" stroke-linecap="round" stroke-linejoin="round"/><path d="M33 211.427c0 1.6 2.7 2 3.8 1.5.6-.3.9-.9 1-1.6l.2-4.7-4.7-.3-.3 5.1z" fill="#A6D1FF"/><path d="M41.6 136.927s1.9 53-3.2 71.5c-1.6 3.9-6.9 2-6.5.5 1.7-15.4.9-11.6 1-16.9.2-9.7-1.8-24.6-2.2-28.5-.5-5.4-17.8-16.5-13.1-33.9l24 7.3z" fill="#2F80ED"/><path d="m23.4 204.627 7.2-5.5c1.8-1.1 2.3-2.9.8-4.4-.9-.6-2.1-.7-3.4.1l-8.2 4.2c-1.9 1.2-2.1 3.8-.5 5.3 1.2.9 2.8 1.1 4.1.3z" stroke="#2F80ED" stroke-width="2" stroke-miterlimit="10" stroke-linecap="round" stroke-linejoin="round"/><path d="M18.9 200.727c0 1.6 2.7 2 3.8 1.5.6-.3.9-.9 1-1.6l.2-4.7-4.7-.3-.3 5.1z" fill="#A6D1FF"/><path d="M27.6 126.227s1.9 53-3.2 71.5c-1.6 3.9-6.9 2-6.5.5 1.7-15.4.9-11.6 1-16.9.2-9.7-1.8-24.6-2.2-28.5-.5-5.4-8.5-14.8-3.8-32.3l14.7 5.7z" fill="#2F80ED"/><path d="M15.7 75.827c1 6.3 6.2 10.8 11.4 9.9 5.2-.9 8.7-6.7 7.7-13-1-6.3-6.2-10.8-11.4-9.9-5.3.9-8.8 6.7-7.7 13z" fill="#fff" stroke="#2F80ED" stroke-width="2" stroke-miterlimit="10" stroke-linecap="round" stroke-linejoin="round"/><path d="M34 67.727s-.8 5.2-3.5 6.6c-2.7 1.5-1.4 9.9-4.9 10.5-3.5.6-9-2-9.9-9-.9-7 2.7-13.3 7.5-13.8 4.9-.5 9.5.9 10.8 5.7z" fill="#2F80ED"/><path d="M28.903 79.58c1.526-.251 2.495-2.09 2.163-4.106-.331-2.016-1.837-3.448-3.363-3.197-1.526.251-2.494 2.09-2.163 4.106.332 2.016 1.837 3.447 3.363 3.197z" fill="#fff"/><path d="M45.7 125.227c2.5-4.2 2.5-15.9-.2-20l-9.6-14.1c-1.4-3-3.4-4.7-6.3-5.4-4.5 2.3-9.6-1.3-9.6-4.4-.8-.5-1-.7-2.1-.8-9.3-.3-7.5 14.5-8.2 20.9l1.4 33.3c10 15 19 14.5 30.9 12.5l-.6-10.2.3.1 4-11.9zM163.7 102.427l-31.1-18.1 31.1-18 31.4 18.1-31.4 18z" fill="#fff" stroke="#2F80ED" stroke-width="2" stroke-miterlimit="10" stroke-linecap="round" stroke-linejoin="round"/><path d="m163.8 169.027-31.1-18.1v-66.6l31.1 18.1v66.6z" fill="#fff" stroke="#2F80ED" stroke-width="2" stroke-miterlimit="10" stroke-linecap="round" stroke-linejoin="round"/><path d="m163.8 169.027 31.1-18.1v-66.6l-31.1 18.1v66.6z" fill="#A6D1FF" stroke="#2F80ED" stroke-width="2" stroke-miterlimit="10" stroke-linecap="round" stroke-linejoin="round"/><path d="m205.8 152.627-31.4-18.1 31.2-18 31.3 18.1-31.1 18z" fill="#fff" stroke="#2F80ED" stroke-width="2" stroke-miterlimit="10" stroke-linecap="round" stroke-linejoin="round"/><path d="m205.2 194.927 32-19.2v-41.2l-32 18.1v42.3z" fill="#A6D1FF" stroke="#2F80ED" stroke-width="2" stroke-miterlimit="10" stroke-linecap="round" stroke-linejoin="round"/><path d="M205.8 194.827v-42.2l-31.3-18.1v42.2l31.3 18.1z" fill="#fff" stroke="#2F80ED" stroke-width="2" stroke-miterlimit="10" stroke-linecap="round" stroke-linejoin="round"/><path d="m36.9 107.127 1.1 22.4M37.2 105.227s8.5 11.8.9 24.3" stroke="#2F80ED" stroke-width="2" stroke-miterlimit="10" stroke-linecap="round" stroke-linejoin="round"/><path d="M44.6 133.927c1.8 3 2 6.2.3 7.2s-4.5-.5-6.4-3.5c-1.8-3-2-6.2-.3-7.2.9 2 4.4 2.5 4.8 1.5.7.6 1.2 1.3 1.6 2z" fill="#fff" stroke="#2F80ED" stroke-width="2" stroke-miterlimit="10" stroke-linecap="round" stroke-linejoin="round"/></g><defs><clipPath id="a"><path fill="#fff" d="M0 .727h285.3v216.1H0z"/></clipPath></defs></svg>