<svg width="275" height="207" fill="none" xmlns="http://www.w3.org/2000/svg"><g clip-path="url(#a)" opacity=".2"><path d="M55 42.327s1.7-6.4 2.2-11.1c0 0 8.3 2.2 10-5.2 1.7-7.3.8-13.4 5.3-13.7 9.8-.6 8.2 29.7-8.8 30H55z" fill="#fff"/><path d="m271.6 122.827-67.9-38.3c-4.1-2.3-11.1-1.8-15.7.9l-121.8 71.8c-4.7 2.7-5.2 6.8-1.1 9.1l67.9 38.3c4.1 2.3 11 1.8 15.7-1l121.8-71.8c4.7-2.8 5.2-6.7 1.1-9zM69.3 105.427c-5.9 3.4-13.9 4.9-21.6 4.4l16.6-28.5c1.7.6 3.4 1.4 4.9 2.2 10.5 6.2 10.6 15.9.1 21.9z" fill="#A6D1FF"/><path d="m54.6 84.627-5 15.1c-.5 4-2.3 5.1-5.5 6.9-2.3 1.3-5 2.5-8 3 6.6 1.1 13.8-.1 19-3.1 3.2-1.8 5-2.8 5.5-6.8l8.9-27c-4.5 7.8-9.5 11.1-14.9 11.9z" fill="#A6D1FF"/><path d="m12.7 71.527 9.2 28.2c.3 2.6 2.2 5.2 5.7 7.1 7.6 4.4 20 4.4 27.6 0 3.2-1.8 5-4.2 5.5-6.6l8.9-27.1" stroke="#2F80ED" stroke-width="2" stroke-miterlimit="10" stroke-linecap="round" stroke-linejoin="round"/><path d="M70.165 69.962c.05-9.168-12.805-16.67-28.71-16.756-15.906-.087-28.84 7.276-28.89 16.444-.05 9.167 12.804 16.67 28.71 16.756 15.905.086 28.84-7.276 28.89-16.444z" stroke="#2F80ED" stroke-width="2" stroke-miterlimit="10" stroke-linecap="round" stroke-linejoin="round"/><path d="M65.803 69.403c.043-7.898-10.981-14.36-24.623-14.434-13.641-.074-24.735 6.268-24.777 14.166-.043 7.898 10.98 14.36 24.622 14.434 13.642.074 24.735-6.269 24.778-14.166z" fill="#2F80ED"/><path d="m256.5 114.127-67.9-38.4c-4.1-2.3-11.1-1.8-15.7.9l-121.8 71.9c-4.7 2.7-5.2 6.8-1.1 9.1l67.9 38.3c4.1 2.3 11 1.8 15.7-1l121.8-71.8c4.6-2.8 5.2-6.7 1.1-9z" fill="#fff" stroke="#2F80ED" stroke-width="2" stroke-miterlimit="10" stroke-linecap="round" stroke-linejoin="round"/><path opacity=".5" d="m241.4 119.327-63.9-36.8c-.7-.4-1.9-.1-2.6.3l-105.2 61.8c-1.5.9-1.5 3 0 3.8l65.5 35.9c.7.4 1.5.4 2.2-.1l104-61.2c1.4-.8 1.4-2.9 0-3.7zM85.1 163.927l15.3 8.6c2.3 1.3 2.2 4.1-.2 5-1.4.6-3.1.5-4.5-.3l-14.5-8.1c-2.5-1.4-2.4-4.4.2-5.5 1.2-.4 2.6-.3 3.7.3z" fill="#A6D1FF"/><path d="m47.3 154.427.1.7.8 6.5c0 .1 0 .2.1.3v.1c0 .2.1.4.2.6 0 0 0 .1.1.1.1.1.1.3.2.4 0 .1.1.1.1.2.1.1.2.2.2.3l.2.2.3.3.2.2c.1.1.2.2.4.3.1 0 .1.1.2.1.2.1.4.3.7.4l68 38.4c.3.1.5.3.8.4.1 0 .2.1.3.1.2.1.4.2.6.2.1 0 .2.1.4.1.2.1.4.1.5.2.1 0 .3.1.4.1.2 0 .4.1.5.1.1 0 .3 0 .4.1.2 0 .4.1.6.1h.5c.2 0 .4 0 .6.1h2.1c2.9-.1 5.9-.9 8.3-2.3l120.9-71.3c3.1-1.8 3.1-3.1 3-5.7l.2-6.6" stroke="#2F80ED" stroke-width="2" stroke-miterlimit="10" stroke-linecap="round" stroke-linejoin="round"/><path d="m229.1 142.827 7-4.1c.5-.3.9-.1.9.4l-.1-.1c0 .5-.5.9-1 1.2l-7 4.1c-.5.3-.8.3-.8-.2h.1c-.1-.5.4-1 .9-1.3zM241.2 135.627l7-4.1c.5-.3.9-.1.9.4l-.1-.1c0 .5-.5.9-1 1.2l-7 4.1c-.5.3-.8.3-.8-.2h.1c0-.5.5-1 .9-1.3zM222 100.527l-18.2-10.3c-.6-.4-1.8-.3-2.5.1s-.8 1.1-.2 1.4l18.2 10.3c.6.4 1.8.3 2.5-.1.8-.4.9-1.1.2-1.4z" fill="#2F80ED"/><path d="M57.2 31.327s8.3 2.2 10-5.2c1.7-7.3.8-13.4 5.3-13.7 9.8-.6 8.2 29.7-8.8 30l-8.7-.1" fill="#fff"/><path d="M57.2 31.327s8.3 2.2 10-5.2c1.7-7.3.8-13.4 5.3-13.7 9.8-.6 8.2 29.7-8.8 30l-8.7-.1" stroke="#2F80ED" stroke-width="2" stroke-miterlimit="10" stroke-linecap="round" stroke-linejoin="round"/><path d="M23.8 32.327s-1.5-6.4-1.8-11.1c0 0-8.4 1.8-9.8-5.6-1.4-7.4-.2-13.4-4.7-13.9-9.8-1-9.4 29.3 7.6 30.3l8.7.3z" fill="#fff"/><path d="M22 21.227s-8.4 1.8-9.8-5.6c-1.4-7.4-.2-13.4-4.7-13.9-9.8-1-9.4 29.3 7.6 30.3l8.7.2" fill="#fff"/><path d="M22 21.227s-8.4 1.8-9.8-5.6c-1.4-7.4-.2-13.4-4.7-13.9-9.8-1-9.4 29.3 7.6 30.3l8.7.2" stroke="#2F80ED" stroke-width="2" stroke-miterlimit="10" stroke-linecap="round" stroke-linejoin="round"/><path d="M50.7 67.327s17.1-64.9-12-64.9c-25.4 0-6.9 64.8-6.9 64.8 5 3.6 11.5 3.3 18.9.1z" fill="#fff"/><path d="M29.2 67.327s-15.9-64.9 9.4-64.9c29.1 0 12 64.9 12 64.9" fill="#fff"/><path d="M29.2 67.327s-15.9-64.9 9.4-64.9c29.1 0 12 64.9 12 64.9M40 8.027v7.7M40.4 23.627v7.6M40.9 39.227v7.6M41.4 54.827v7.6M49.3 16.627l-3.2 4M63.1 34.827l-3.3 4M72.8 32.827l-3.3 4M74.8 20.427l-3.2 4M15.6 23.827l3.3 4M5.9 21.827l3.3 4M3.9 9.427l3.2 4M31.1 16.627l3.3 4M29.5 28.627l3.2 4.1M30.6 41.027l3.3 4M31.1 53.127l3.3 4.1M50.9 25.827l-3.2 4M50.9 37.327l-3.2 4M49.3 51.127l-3.2 4" stroke="#2F80ED" stroke-width="2" stroke-miterlimit="10" stroke-linecap="round" stroke-linejoin="round"/></g><defs><clipPath id="a"><path fill="#fff" d="M0 .727h274.4v205.5H0z"/></clipPath></defs></svg>